<svg width="5170" height="2922" viewBox="0 0 5170 2922" fill="none" xmlns="http://www.w3.org/2000/svg">
<path d="M4364.33 1.80062C4321.66 7.26728 4276.46 23.8006 4242.2 46.734C4175.26 91.6673 4132.2 158.601 4118.73 238.467C4115 260.867 4115.4 305.801 4119.53 329.001C4128.06 377.001 4147.66 421.001 4177.13 457.667C4182.06 463.934 4233.8 516.601 4291.93 574.734L4397.66 680.334L4506.46 571.401C4572.73 504.867 4618.2 458.334 4622.73 452.067C4650.6 414.467 4668.73 371.534 4676.33 325.667C4679.26 307.667 4680.33 273.401 4678.46 255.667C4671.26 188.334 4643.8 129.934 4597.66 83.534C4551.8 37.534 4494.33 9.53395 4429 1.66728C4415.66 0.0672822 4377.66 0.200616 4364.33 1.80062Z" fill="#E9A849"/>
<path d="M546.598 257.801C409.265 266.068 286.865 310.468 185.665 388.601C166.065 403.668 121.932 447.401 105.798 467.668C90.9982 486.334 69.1315 519.134 57.9315 539.668C8.86485 629.001 -9.40182 737.134 6.46485 845.001C21.5315 948.068 69.6648 1040.73 147.532 1116.73C223.665 1190.87 324.332 1243.27 436.332 1266.87C533.532 1287.4 648.865 1287.93 746.332 1268.2C837.398 1249.8 921.798 1212.33 992.332 1159.13C1012.6 1143.8 1030.46 1127.93 1051.66 1106.2C1125.93 1030.07 1170.46 938.601 1184.6 832.334C1188.06 806.868 1188.06 731.534 1184.6 706.468C1167 576.868 1104.6 468.734 999.398 385.534C921.798 324.068 813.132 279.534 702.332 263.801C654.598 257.001 596.598 254.734 546.598 257.801ZM650.198 486.334C724.198 495.934 789.932 521.801 838.865 560.868C874.598 589.268 899.265 619.268 917.132 655.801C946.332 715.801 951.265 788.334 930.332 851.001C903.265 932.068 841.798 992.601 750.332 1028.73C658.465 1065 532.065 1065.13 440.332 1029.27C345.398 992.201 280.732 927.934 258.198 848.334C246.198 806.068 244.332 754.201 253.132 710.334C269.132 630.734 323.932 565.001 408.332 524.334C450.465 504.068 500.332 489.934 544.998 485.801C553.398 485.001 562.732 484.068 565.665 483.801C576.865 482.601 635.665 484.334 650.198 486.334Z" fill="black"/>
<path d="M1975.66 788.333V1283H2095.66H2215.66V1124.6L2215.8 966.333L2297.13 899C2341.8 861.933 2378.86 831.533 2379.4 831.4C2379.93 831.267 2462.2 932.733 2562.33 1057L2744.33 1283H2888.86C3026.46 1283 3033.26 1282.87 3031.4 1280.6C3021 1268.47 2546.33 693.533 2546.33 693.133C2546.33 692.733 2653.53 603.533 2784.73 494.867C2915.8 386.2 3023.93 296.467 3025 295.4C3026.6 293.933 3002.33 293.667 2875.4 293.667H2723.8L2470.06 504.467L2216.33 715.4L2215.93 504.467L2215.66 293.667H2095.66H1975.66V788.333Z" fill="black"/>
<path d="M3895.67 481.668C3859.4 484.468 3827.13 493.268 3793.67 509.535C3702.33 553.935 3643.67 640.468 3635.4 743.268C3631 798.868 3645.93 861.001 3675.67 909.668C3715.53 974.868 3780.87 1021.53 3855.67 1038.2C3864.07 1040.07 3876.47 1042.2 3883 1043.13C3899 1045.13 3934.6 1045.13 3950.33 1043.13C4003.53 1036.2 4053.93 1014.87 4094.33 981.935C4099.8 977.535 4151.67 926.468 4209.67 868.468L4315 763.001L4209.67 657.535C4151.67 599.535 4099.8 548.468 4094.33 544.068C4039.4 499.268 3965.67 476.201 3895.67 481.668Z" fill="#487C4B"/>
<path d="M4869.67 490.467C4810.2 495.401 4759.67 514.867 4713 550.734C4706.47 555.801 4657.27 603.801 4595.27 665.534L4489 771.667L4594.6 877.401C4652.73 935.534 4704.87 986.867 4710.33 991.267C4749.8 1023.4 4798.6 1044.47 4850.07 1051.53C4867.4 1053.93 4904.33 1054.33 4921 1052.2C5029.67 1038.73 5120.6 964.734 5154.73 862.201C5172.47 808.867 5174.47 756.467 5161 702.734C5146.87 646.601 5114.2 594.201 5070.33 557.267C5029.67 523.134 4980.33 500.734 4928.6 493.134C4913.93 491.001 4881.53 489.534 4869.67 490.467Z" fill="black"/>
<path d="M4869.67 490.467C4810.2 495.401 4759.67 514.867 4713 550.734C4706.47 555.801 4657.27 603.801 4595.27 665.534L4489 771.667L4594.6 877.401C4652.73 935.534 4704.87 986.867 4710.33 991.267C4749.8 1023.4 4798.6 1044.47 4850.07 1051.53C4867.4 1053.93 4904.33 1054.33 4921 1052.2C5029.67 1038.73 5120.6 964.734 5154.73 862.201C5172.47 808.867 5174.47 756.467 5161 702.734C5146.87 646.601 5114.2 594.201 5070.33 557.267C5029.67 523.134 4980.33 500.734 4928.6 493.134C4913.93 491.001 4881.53 489.534 4869.67 490.467Z" fill="#487C4B"/>
<path d="M4371 896.468C4283.13 907.134 4207 955.268 4161.4 1028.73C4154.2 1040.47 4140.73 1067.13 4141.53 1067.93C4141.8 1068.2 4155.4 1063.93 4171.8 1058.47C4231.93 1038.2 4290.06 1026.33 4351.53 1021.67C4374.73 1019.93 4436.73 1019.93 4459.8 1021.67C4521.53 1026.47 4577 1037.67 4636.06 1057.13C4648.46 1061.27 4658.86 1064.33 4659.13 1063.93C4660.06 1063 4648.6 1040.6 4641 1028.2C4626.6 1005 4603 978.068 4580.86 959.534C4543.8 928.601 4495.26 906.734 4445 898.334C4429.66 895.668 4385.93 894.601 4371 896.468Z" fill="#E9A849"/>
<path d="M4370.33 1102.6C4351.67 1103.67 4318.2 1107.53 4297.13 1111.13C4253.93 1118.33 4224.6 1126.6 4154.47 1151.27L4119.4 1163.67L4120.2 1187.67C4120.87 1209.4 4123.27 1229.67 4125.27 1231.8C4125.8 1232.2 4138.07 1228.33 4152.6 1223.27C4167.13 1218.07 4186.2 1211.8 4195 1209.27C4309.53 1175.27 4431.13 1169.93 4547.67 1193.67C4581.27 1200.47 4606.2 1207.27 4645.53 1220.47C4663 1226.33 4677.53 1230.87 4677.93 1230.47C4681.27 1227.27 4685.4 1161.67 4682.47 1159.8C4677.93 1157 4586.47 1127.27 4566.87 1122.33C4512.33 1108.33 4456.07 1101.4 4401.93 1101.93C4388.6 1102.07 4374.33 1102.33 4370.33 1102.6Z" fill="#E9A849"/>
<path d="M4377 1261.8C4323.66 1263.67 4272.86 1272.07 4219.4 1287.8C4205.13 1291.93 4154.33 1309.27 4153.26 1310.33C4151.93 1311.53 4171.26 1341 4181.8 1354.07L4184.6 1357.4L4200.2 1353C4236.2 1342.6 4276.06 1334.73 4319 1329.53C4349.26 1325.93 4420.33 1324.47 4451.8 1326.87C4503.13 1330.73 4551.26 1339.13 4598.06 1352.47C4608.46 1355.4 4617.66 1357.4 4618.33 1357C4622.6 1354.33 4651.66 1310.6 4650.2 1309C4649.8 1308.73 4634.33 1303.4 4615.66 1297.13C4531.66 1269.13 4462.2 1258.87 4377 1261.8Z" fill="#E9A849"/>
<path d="M4365 1407.8C4331.4 1410.2 4285.4 1416.6 4259.8 1422.47L4250.06 1424.73L4325.53 1500.2L4401 1575.67L4476.33 1500.33L4551.66 1425L4541.26 1422.73C4522.86 1418.47 4486.06 1412.6 4465 1410.33C4445.4 1408.2 4381.53 1406.6 4365 1407.8Z" fill="#E9A849"/>
<path d="M540.332 1896.33C431.665 1904.2 345.532 1929.67 270.865 1976.07C202.065 2018.87 158.065 2075.67 141.665 2143.4C131.132 2186.87 132.199 2242.87 144.332 2285C155.665 2324.07 172.732 2352.2 203.532 2383.13C246.199 2425.53 306.599 2457.8 389.532 2482.33C433.132 2495.13 473.265 2503 538.999 2511.67C558.865 2514.33 582.865 2517.67 592.332 2519.13C601.932 2520.6 618.999 2523 630.332 2524.47C713.399 2534.87 763.932 2551.8 787.399 2576.73C797.799 2587.93 802.599 2599 803.265 2614.2C805.132 2649.8 786.999 2675.13 746.065 2694.2C724.465 2704.33 703.532 2710.07 672.999 2714.33C570.999 2728.47 442.199 2705.67 343.265 2656.2C301.532 2635.27 255.132 2604.87 214.332 2571.8C207.532 2566.2 201.532 2561.67 200.999 2561.67C199.932 2561.67 81.7986 2740.73 80.3319 2744.47C79.7986 2745.93 83.7986 2749.93 93.9319 2757.93C177.132 2823.8 259.799 2865.67 361.665 2893.67C459.399 2920.47 594.465 2928.6 702.065 2914.2C816.332 2899 908.065 2858.47 971.132 2795.67C1018.2 2748.73 1041.93 2703.13 1052.33 2639C1055.4 2621 1056.33 2581.93 1054.47 2561.67C1050.07 2517 1039.53 2485 1019 2454.33C994.065 2417.13 966.065 2393.13 920.999 2370.6C879.399 2349.67 841.132 2336.73 782.865 2323.8C725.665 2311.13 664.599 2300.6 611.665 2294.33C519.399 2283.4 458.732 2268.87 425.799 2249.53C407.132 2238.6 398.599 2230.2 391.932 2216.33C387.132 2206.47 386.999 2206.07 386.999 2190.33C386.999 2175 387.132 2173.93 391.265 2165.67C396.865 2154.47 401.932 2148.47 412.865 2140.2C462.865 2102.2 576.999 2088.6 680.332 2108.33C724.732 2116.87 766.732 2130.73 809.932 2151.13C837.932 2164.33 858.599 2177.13 882.065 2196.07C888.999 2201.67 894.999 2205.53 895.532 2204.87C896.199 2204.2 922.332 2170.33 953.665 2129.67C985.132 2089 1012.6 2053.4 1014.73 2050.47C1017.93 2046.6 1018.47 2044.87 1017.4 2043.13C1014.73 2038.87 986.732 2014.33 972.332 2003.53C919.132 1963.93 856.999 1936.07 778.332 1916.33C742.999 1907.53 712.065 1902.33 670.199 1898.2C645.932 1895.93 563.665 1894.73 540.332 1896.33Z" fill="black"/>
<path d="M1975.66 2412.33V2907H2096.33H2217V2748.6V2590.07L2297.8 2523.13C2342.2 2486.33 2379.26 2456.47 2380.06 2456.73C2381 2457 2463.26 2558.47 2563 2682.2L2744.33 2907H2888.6H3033L3005.13 2873.27C2989.8 2854.87 2880.33 2722.33 2761.8 2579C2643.26 2435.67 2546.33 2317.93 2546.33 2317.53C2546.33 2317.13 2653 2228.33 2783.26 2120.2C2913.66 2012.07 3021.8 1922.33 3023.66 1920.73L3027 1917.8L2875.66 1917.67H2724.33L2471 2128.2L2217.66 2338.87L2217.26 2128.2L2217 1917.67H2096.33H1975.66V2412.33Z" fill="black"/>
<path d="M3824.2 1918.6C3824.46 1919.27 3930.73 2054.6 4060.2 2219.53L4295.66 2519.53V2713.27V2907H4416.33H4537V2709V2511.13L4758.86 2214.73L4980.73 1918.33L4843.13 1917.93C4711.53 1917.67 4705.53 1917.67 4703.66 1920.07C4702.6 1921.4 4637.8 2010.73 4559.66 2118.73C4427 2302.07 4417.53 2314.87 4415.53 2312.6C4414.33 2311.4 4346.86 2221.93 4265.66 2113.93L4117.93 1917.67H3970.73C3889.8 1917.67 3823.8 1918.07 3824.2 1918.6Z" fill="black"/>
</svg>
