<?xml version="1.0" encoding="utf-8"?><svg width="24" height="24" xmlns="http://www.w3.org/2000/svg" viewBox="0 0 24 24"><path fill-rule="evenodd" clip-rule="evenodd" d="M20.564 3.316A1.31 1.31 0 0019.688 3H18v9h1.688A1.31 1.31 0 0021 10.923V4.077a1.31 1.31 0 00-.436-.761zM16 12.788V3H5.709a1 1 0 00-1 .85l-1.38 9a1.003 1.003 0 00.579 1.063c.132.059.276.089.42.087H10a1 1 0 011 1v4a2 2 0 001.392 1.905L16 12.788zM17.65 14l-3.736 8.406A1 1 0 0113 23a4 4 0 01-4-4v-3H4.345a3 3 0 01-2.994-3.45l1.38-9A3.002 3.002 0 015.725 1h13.937a3.31 3.31 0 013.329 2.866c.006.044.009.09.009.134v7c0 .045-.003.09-.009.134A3.31 3.31 0 0119.662 14H17.65z"/></svg>